<svg width="144" height="36" viewBox="0 0 144 36" fill="none" xmlns="http://www.w3.org/2000/svg">
<path d="M11.2676 28C10.1074 28 9.01758 27.7832 7.99805 27.3496C6.97852 26.9043 6.08203 26.3008 5.30859 25.5391C4.54688 24.7656 3.94336 23.8691 3.49805 22.8496C3.06445 21.8301 2.84766 20.7402 2.84766 19.5801V13.9902H0.509766V9.20898H2.84766V1.68555H7.62891V9.20898H14.9062V13.9902H7.62891V19.5801C7.62891 20.084 7.72266 20.5586 7.91016 21.0039C8.09766 21.4375 8.35547 21.8184 8.68359 22.1465C9.01172 22.4746 9.39844 22.7383 9.84375 22.9375C10.2891 23.125 10.7637 23.2188 11.2676 23.2188H14.9062V28H11.2676ZM25.1016 23.3945C25.2891 23.4531 25.4766 23.4941 25.6641 23.5176C25.8516 23.5293 26.0391 23.5352 26.2266 23.5352C26.6953 23.5352 27.1465 23.4707 27.5801 23.3418C28.0137 23.2129 28.418 23.0312 28.793 22.7969C29.1797 22.5508 29.5195 22.2578 29.8125 21.918C30.1172 21.5664 30.3633 21.1797 30.5508 20.7578L34.0664 24.291C33.6211 24.9238 33.1055 25.4922 32.5195 25.9961C31.9453 26.5 31.3184 26.9277 30.6387 27.2793C29.9707 27.6309 29.2617 27.8945 28.5117 28.0703C27.7734 28.2578 27.0117 28.3516 26.2266 28.3516C24.9023 28.3516 23.6543 28.1055 22.4824 27.6133C21.3223 27.1211 20.3027 26.4355 19.4238 25.5566C18.5566 24.6777 17.8711 23.6348 17.3672 22.4277C16.8633 21.209 16.6113 19.873 16.6113 18.4199C16.6113 16.9316 16.8633 15.5723 17.3672 14.3418C17.8711 13.1113 18.5566 12.0625 19.4238 11.1953C20.3027 10.3281 21.3223 9.6543 22.4824 9.17383C23.6543 8.69336 24.9023 8.45312 26.2266 8.45312C27.0117 8.45312 27.7793 8.54688 28.5293 8.73438C29.2793 8.92188 29.9883 9.19141 30.6562 9.54297C31.3359 9.89453 31.9688 10.3281 32.5547 10.8438C33.1406 11.3477 33.6562 11.916 34.1016 12.5488L25.1016 23.3945ZM27.5625 13.498C27.3398 13.416 27.1172 13.3633 26.8945 13.3398C26.6836 13.3164 26.4609 13.3047 26.2266 13.3047C25.5703 13.3047 24.9492 13.4277 24.3633 13.6738C23.7891 13.9082 23.2852 14.248 22.8516 14.6934C22.4297 15.1387 22.0957 15.6777 21.8496 16.3105C21.6035 16.9316 21.4805 17.6348 21.4805 18.4199C21.4805 18.5957 21.4863 18.7949 21.498 19.0176C21.5215 19.2402 21.5508 19.4688 21.5859 19.7031C21.6328 19.9258 21.6855 20.1426 21.7441 20.3535C21.8027 20.5645 21.8789 20.752 21.9727 20.916L27.5625 13.498ZM41.3262 28H36.5273V9.17383H37.6875L39.2695 11.4062C40.043 10.7031 40.9219 10.1641 41.9062 9.78906C42.8906 9.40234 43.9102 9.20898 44.9648 9.20898H49.2012V13.9902H44.9648C44.4609 13.9902 43.9863 14.084 43.541 14.2715C43.0957 14.459 42.709 14.7168 42.3809 15.0449C42.0527 15.373 41.7949 15.7598 41.6074 16.2051C41.4199 16.6504 41.3262 17.125 41.3262 17.6289V28ZM69.3105 28H68.1504L66.2871 25.416C65.8301 25.8262 65.3438 26.2129 64.8281 26.5762C64.3242 26.9277 63.791 27.2383 63.2285 27.5078C62.666 27.7656 62.0859 27.9707 61.4883 28.123C60.9023 28.2754 60.3047 28.3516 59.6953 28.3516C58.3711 28.3516 57.123 28.1289 55.9512 27.6836C54.791 27.2383 53.7715 26.5938 52.8926 25.75C52.0254 24.8945 51.3398 23.8516 50.8359 22.6211C50.332 21.3906 50.0801 19.9902 50.0801 18.4199C50.0801 16.9551 50.332 15.6133 50.8359 14.3945C51.3398 13.1641 52.0254 12.1094 52.8926 11.2305C53.7715 10.3516 54.791 9.67188 55.9512 9.19141C57.123 8.69922 58.3711 8.45312 59.6953 8.45312C60.3047 8.45312 60.9082 8.5293 61.5059 8.68164C62.1035 8.83398 62.6836 9.04492 63.2461 9.31445C63.8086 9.58398 64.3418 9.90039 64.8457 10.2637C65.3613 10.627 65.8418 11.0195 66.2871 11.4414L68.1504 9.20898H69.3105V28ZM64.4766 18.4199C64.4766 17.7637 64.3477 17.1309 64.0898 16.5215C63.8438 15.9004 63.5039 15.3555 63.0703 14.8867C62.6367 14.4062 62.127 14.0254 61.541 13.7441C60.9668 13.4512 60.3516 13.3047 59.6953 13.3047C59.0391 13.3047 58.418 13.416 57.832 13.6387C57.2578 13.8613 56.7539 14.1895 56.3203 14.623C55.8984 15.0566 55.5645 15.5957 55.3184 16.2402C55.0723 16.873 54.9492 17.5996 54.9492 18.4199C54.9492 19.2402 55.0723 19.9727 55.3184 20.6172C55.5645 21.25 55.8984 21.7832 56.3203 22.2168C56.7539 22.6504 57.2578 22.9785 57.832 23.2012C58.418 23.4238 59.0391 23.5352 59.6953 23.5352C60.3516 23.5352 60.9668 23.3945 61.541 23.1133C62.127 22.8203 62.6367 22.4395 63.0703 21.9707C63.5039 21.4902 63.8438 20.9453 64.0898 20.3359C64.3477 19.7148 64.4766 19.0762 64.4766 18.4199ZM77.8184 35.1719H72.9844V9.17383H74.1445L76.0605 11.4414C76.4941 11.0312 76.9688 10.6445 77.4844 10.2812C78 9.91797 78.5332 9.60742 79.084 9.34961C79.6465 9.08008 80.2266 8.86914 80.8242 8.7168C81.4219 8.56445 82.0254 8.48828 82.6348 8.48828C83.959 8.48828 85.2012 8.72852 86.3613 9.20898C87.5332 9.67773 88.5527 10.3457 89.4199 11.2129C90.2988 12.0801 90.9902 13.1289 91.4941 14.3594C91.998 15.5781 92.25 16.9316 92.25 18.4199C92.25 19.9668 91.998 21.3613 91.4941 22.6035C90.9902 23.834 90.2988 24.8828 89.4199 25.75C88.5527 26.6055 87.5332 27.2617 86.3613 27.7188C85.2012 28.1758 83.959 28.4043 82.6348 28.4043C82.2129 28.4043 81.791 28.3574 81.3691 28.2637C80.959 28.1699 80.5488 28.0469 80.1387 27.8945C79.7402 27.7305 79.3418 27.5488 78.9434 27.3496C78.5566 27.1504 78.1816 26.9453 77.8184 26.7344V35.1719ZM87.4336 18.4199C87.4336 17.623 87.3047 16.9082 87.0469 16.2754C86.8008 15.6426 86.4609 15.1094 86.0273 14.6758C85.5938 14.2305 85.084 13.8906 84.498 13.6562C83.9121 13.4219 83.291 13.3047 82.6348 13.3047C81.9785 13.3047 81.3574 13.4219 80.7715 13.6562C80.1973 13.8906 79.6934 14.2305 79.2598 14.6758C78.8262 15.1094 78.4805 15.6426 78.2227 16.2754C77.9766 16.9082 77.8535 17.623 77.8535 18.4199C77.8535 19.1816 77.9766 19.8789 78.2227 20.5117C78.4805 21.1445 78.8262 21.6836 79.2598 22.1289C79.6934 22.5742 80.1973 22.9199 80.7715 23.166C81.3574 23.4121 81.9785 23.5352 82.6348 23.5352C83.291 23.5352 83.9121 23.4121 84.498 23.166C85.084 22.9199 85.5938 22.5742 86.0273 22.1289C86.4609 21.6836 86.8008 21.1445 87.0469 20.5117C87.3047 19.8789 87.4336 19.1816 87.4336 18.4199ZM99.7559 35.1719H94.9219V9.17383H96.082L97.998 11.4414C98.4316 11.0312 98.9062 10.6445 99.4219 10.2812C99.9375 9.91797 100.471 9.60742 101.021 9.34961C101.584 9.08008 102.164 8.86914 102.762 8.7168C103.359 8.56445 103.963 8.48828 104.572 8.48828C105.896 8.48828 107.139 8.72852 108.299 9.20898C109.471 9.67773 110.49 10.3457 111.357 11.2129C112.236 12.0801 112.928 13.1289 113.432 14.3594C113.936 15.5781 114.188 16.9316 114.188 18.4199C114.188 19.9668 113.936 21.3613 113.432 22.6035C112.928 23.834 112.236 24.8828 111.357 25.75C110.49 26.6055 109.471 27.2617 108.299 27.7188C107.139 28.1758 105.896 28.4043 104.572 28.4043C104.15 28.4043 103.729 28.3574 103.307 28.2637C102.896 28.1699 102.486 28.0469 102.076 27.8945C101.678 27.7305 101.279 27.5488 100.881 27.3496C100.494 27.1504 100.119 26.9453 99.7559 26.7344V35.1719ZM109.371 18.4199C109.371 17.623 109.242 16.9082 108.984 16.2754C108.738 15.6426 108.398 15.1094 107.965 14.6758C107.531 14.2305 107.021 13.8906 106.436 13.6562C105.85 13.4219 105.229 13.3047 104.572 13.3047C103.916 13.3047 103.295 13.4219 102.709 13.6562C102.135 13.8906 101.631 14.2305 101.197 14.6758C100.764 15.1094 100.418 15.6426 100.16 16.2754C99.9141 16.9082 99.791 17.623 99.791 18.4199C99.791 19.1816 99.9141 19.8789 100.16 20.5117C100.418 21.1445 100.764 21.6836 101.197 22.1289C101.631 22.5742 102.135 22.9199 102.709 23.166C103.295 23.4121 103.916 23.5352 104.572 23.5352C105.229 23.5352 105.85 23.4121 106.436 23.166C107.021 22.9199 107.531 22.5742 107.965 22.1289C108.398 21.6836 108.738 21.1445 108.984 20.5117C109.242 19.8789 109.371 19.1816 109.371 18.4199ZM122.52 4.05859C122.52 4.50391 122.432 4.91992 122.256 5.30664C122.092 5.69336 121.863 6.0332 121.57 6.32617C121.277 6.60742 120.932 6.83594 120.533 7.01172C120.146 7.17578 119.73 7.25781 119.285 7.25781C118.84 7.25781 118.418 7.17578 118.02 7.01172C117.633 6.83594 117.293 6.60742 117 6.32617C116.719 6.0332 116.49 5.69336 116.314 5.30664C116.15 4.91992 116.068 4.50391 116.068 4.05859C116.068 3.625 116.15 3.21484 116.314 2.82812C116.49 2.42969 116.719 2.08984 117 1.80859C117.293 1.51562 117.633 1.28711 118.02 1.12305C118.418 0.947266 118.84 0.859375 119.285 0.859375C119.73 0.859375 120.146 0.947266 120.533 1.12305C120.932 1.28711 121.277 1.51562 121.57 1.80859C121.863 2.08984 122.092 2.42969 122.256 2.82812C122.432 3.21484 122.52 3.625 122.52 4.05859ZM121.693 28H116.859V9.17383H121.693V28ZM143.561 18.4199C143.561 19.8262 143.309 21.1387 142.805 22.3574C142.301 23.5645 141.615 24.6133 140.748 25.5039C139.881 26.3828 138.861 27.0801 137.689 27.5957C136.529 28.0996 135.281 28.3516 133.945 28.3516C132.621 28.3516 131.373 28.0996 130.201 27.5957C129.041 27.0801 128.021 26.3828 127.143 25.5039C126.275 24.6133 125.59 23.5645 125.086 22.3574C124.582 21.1387 124.33 19.8262 124.33 18.4199C124.33 16.9902 124.582 15.666 125.086 14.4473C125.59 13.2285 126.275 12.1797 127.143 11.3008C128.021 10.4102 129.041 9.71289 130.201 9.20898C131.373 8.70508 132.621 8.45312 133.945 8.45312C135.281 8.45312 136.529 8.69336 137.689 9.17383C138.861 9.64258 139.881 10.3164 140.748 11.1953C141.615 12.0625 142.301 13.1113 142.805 14.3418C143.309 15.5605 143.561 16.9199 143.561 18.4199ZM138.727 18.4199C138.727 17.6465 138.598 16.9492 138.34 16.3281C138.094 15.6953 137.754 15.1562 137.32 14.7109C136.887 14.2539 136.377 13.9082 135.791 13.6738C135.217 13.4277 134.602 13.3047 133.945 13.3047C133.289 13.3047 132.668 13.4277 132.082 13.6738C131.508 13.9082 131.004 14.2539 130.57 14.7109C130.148 15.1562 129.814 15.6953 129.568 16.3281C129.322 16.9492 129.199 17.6465 129.199 18.4199C129.199 19.1465 129.322 19.8203 129.568 20.4414C129.814 21.0625 130.148 21.6016 130.57 22.0586C131.004 22.5156 131.508 22.8789 132.082 23.1484C132.668 23.4062 133.289 23.5352 133.945 23.5352C134.602 23.5352 135.217 23.4121 135.791 23.166C136.377 22.9199 136.887 22.5742 137.32 22.1289C137.754 21.6836 138.094 21.1445 138.34 20.5117C138.598 19.8789 138.727 19.1816 138.727 18.4199Z" fill="#7CBF7F"/>
</svg>
